# xmcd
#
# Track frame offsets: 
#        150
#        11775
#        25602
#        39152
#        53305
#        61637
#        71677
#        82315
#        95787
#        107775
#        122452
#        134130
#        147010
#        157690
#        168707
#        178800
#        189437
#        202997
#        214397
#
# Disc length: 3051 seconds
#
# Revision: 2
# Processed by: cddbd v1.5.2PL0 Copyright (c) Steve Scherf et al.
# Submitted via: ExactAudioCopyFreeDBPlugin 1.0
#
DISCID=070be913
DTITLE=George Harmonica Smith - The Modern Masters - Harmonica Ace
DYEAR=1991
DGENRE=Blues
TTITLE0=Rocking
TTITLE1=Telephone Blues
TTITLE2=Blues In the Dark
TTITLE3=Blues Stay Away
TTITLE4=Have Myself a Ball
TTITLE5=If I Found My Baby
TTITLE6=Oopin' Doopin' Doopin'
TTITLE7=California  Blues
TTITLE8=Down In New Orleans
TTITLE9=Early One Monday Morning
TTITLE10=Rockin' (Take 2)
TTITLE11=Love Life
TTITLE12=Cross Eyed Suzie Lee
TTITLE13=You Don't Love Me
TTITLE14=I Found My Baby
TTITLE15=Oopin' Doopin' Doopin'
TTITLE16=California Blues
TTITLE17=Down in New Orleans aka Hey Mr. Porter
TTITLE18=Early One Monday Mornin'
EXTD=
EXTT0=
EXTT1=
EXTT2=
EXTT3=
EXTT4=
EXTT5=
EXTT6=
EXTT7=
EXTT8=
EXTT9=
EXTT10=
EXTT11=
EXTT12=
EXTT13=
EXTT14=
EXTT15=
EXTT16=
EXTT17=
EXTT18=
PLAYORDER=
